<?xml version="1.0" standalone="no"?><!DOCTYPE svg PUBLIC "-//W3C//DTD SVG 1.1//EN" "http://www.w3.org/Graphics/SVG/1.1/DTD/svg11.dtd"><svg t="1553480868475" class="icon" style="" viewBox="0 0 1024 1024" version="1.1" xmlns="http://www.w3.org/2000/svg" p-id="18046" xmlns:xlink="http://www.w3.org/1999/xlink" width="200" height="200"><defs><style type="text/css"></style></defs><path d="M947.108 844.854c0 12.142-2.074 23.48-6.229 34.024-4.154 10.543-10.063 19.806-17.727 27.795-7.669 7.987-16.616 14.217-26.84 18.685-10.22 4.474-21.4 6.709-33.544 6.709H166.981c-12.137 0-23.64-2.235-34.502-6.709-10.86-4.468-20.442-10.698-28.75-18.685-8.31-7.988-14.858-17.252-19.646-27.795-4.794-10.544-7.19-21.88-7.19-34.024V366.617c0-24.275 8.463-44.882 25.396-61.813 16.933-16.93 37.538-25.4 61.817-25.4h695.79c24.28 0 44.885 8.47 61.816 25.4 16.934 16.932 25.396 37.538 25.396 61.813V496.96H729.556c-24.28 0-44.887 8.304-61.818 24.916-16.931 16.611-25.395 37.057-25.395 61.338 0.64 16.612 4.154 31.308 10.544 44.086 5.109 10.864 13.576 20.766 25.395 29.71 11.821 8.942 28.914 13.417 51.275 13.417H947.11v174.427h-0.001z m-130.34-609.535h-435.11c34.504-17.887 67.088-35.139 97.758-51.75a9069.63 9069.63 0 0 0 79.549-42.171c26.194-14.053 46.64-24.916 61.338-32.585 22.361-12.139 42.327-17.731 59.898-16.773 17.567 0.96 32.425 3.994 44.56 9.104 14.059 7.029 26.2 16.292 36.424 27.794l55.583 106.38z m-130.34 347.897c0-12.138 4.155-22.361 12.46-30.67 8.308-8.304 18.531-12.457 30.669-12.457 12.135 0 22.36 4.153 30.667 12.458 8.305 8.308 12.46 18.531 12.46 30.669 0 12.136-4.155 22.52-12.46 31.148-8.307 8.624-18.531 12.938-30.667 12.938-12.138 0-22.361-4.314-30.67-12.938-8.304-8.628-12.458-19.012-12.458-31.148z" fill="#1296db" p-id="18047"></path></svg>