<?xml version="1.0" standalone="no"?><!DOCTYPE svg PUBLIC "-//W3C//DTD SVG 1.1//EN" "http://www.w3.org/Graphics/SVG/1.1/DTD/svg11.dtd"><svg t="1553480746687" class="icon" style="" viewBox="0 0 1124 1024" version="1.1" xmlns="http://www.w3.org/2000/svg" p-id="13359" xmlns:xlink="http://www.w3.org/1999/xlink" width="219.53125" height="200"><defs><style type="text/css"></style></defs><path d="M562.478873 7.355493c188.444845 0 355.27031 78.646085 457.338592 199.362704 3.634479 4.297915-143.706141 71.290592-318.954366 150.282817-91.712901 41.320563-190.564958 90.28507-274.057014 114.702423-35.162141 11.43707-145.883944-136.047775-171.253184-92.881127-16.124394 10.889014 11.292845 58.988169 36.878423 113.505352 33.388169 71.146366 70.324282 151.076056 71.131944 152.215437 4.196958 3.807549 16.715718 12.360113 40.585014 6.43245 113.274592-56.694986 653.701408-392.841014 659.153126-383.826929C1102.718197 332.338479 1124.957746 406.282817 1124.957746 484.597183c0 263.586254-251.831887 477.270535-562.478873 477.270535-67.511887 0-132.225803-10.095775-192.194704-28.585464-33.719887-11.393803-155.446085 94.510873-180.598986 82.742084-8.653521-4.03831-13.326423-11.725521-10.542873-20.624225 44.14738-153.253859 42.431099-126.500056-7.759324-167.777352C65.694648 740.842366 0 619.245972 0 484.597183 0 221.025352 251.817465 7.355493 562.478873 7.355493" fill="#1afa29" p-id="13360"></path></svg>