<?xml version="1.0" standalone="no"?><!DOCTYPE svg PUBLIC "-//W3C//DTD SVG 1.1//EN" "http://www.w3.org/Graphics/SVG/1.1/DTD/svg11.dtd"><svg t="1553510837949" class="icon" style="" viewBox="0 0 1024 1024" version="1.1" xmlns="http://www.w3.org/2000/svg" p-id="9021" xmlns:xlink="http://www.w3.org/1999/xlink" width="200" height="200"><defs><style type="text/css"></style></defs><path d="M262.4 390.4h-51.2a25.6 25.6 0 1 0 0 51.2h51.2v51.2a25.6 25.6 0 1 0 51.2 0v-51.2h51.2a25.6 25.6 0 1 0 0-51.2h-51.2v-51.2a25.6 25.6 0 1 0-51.2 0v51.2z m376.653 304.34C631.328 631.423 577.389 582.4 512 582.4s-119.328 49.03-127.053 112.34C359.027 803.122 308.134 876.8 249.6 876.8 164.768 876.8 96 722.067 96 531.2c0-144.486 39.405-268.262 95.36-319.891 39.405-39.597 93.952-64.109 154.24-64.109h8.045l0.025 0.032a35.13 35.13 0 0 1 28.653 12.736h0.039C403.789 186.317 453.76 204.8 512 204.8c58.24 0 108.211-18.483 129.638-44.832h0.032a35.13 35.13 0 0 1 28.66-12.736l0.025-0.032h8.045c60.282 0 114.835 24.512 154.24 64.109C888.595 262.938 928 386.714 928 531.2c0 190.867-68.768 345.6-153.6 345.6-58.534 0-109.427-73.677-135.347-182.06zM748.8 492.8c42.413 0 76.8-34.387 76.8-76.8s-34.387-76.8-76.8-76.8S672 373.587 672 416s34.387 76.8 76.8 76.8z" fill="#59AAFF" p-id="9022"></path></svg>