<?xml version="1.0" standalone="no"?><!DOCTYPE svg PUBLIC "-//W3C//DTD SVG 1.1//EN" "http://www.w3.org/Graphics/SVG/1.1/DTD/svg11.dtd"><svg t="1553486015899" class="icon" style="" viewBox="0 0 1024 1024" version="1.1" xmlns="http://www.w3.org/2000/svg" p-id="20634" xmlns:xlink="http://www.w3.org/1999/xlink" width="200" height="200"><defs><style type="text/css"></style></defs><path d="M104.38137 523.371291V258.66068c0-83.380546 67.587965-150.970944 150.969728-150.970944h513.296588c83.380546 0 150.969728 67.590398 150.969727 150.970944v155.738883c-43.14863-12.666662-88.617981-19.867223-135.872876-19.867223-165.778313 0-311.752652 83.698003-398.755372 210.935073l-8.862042-7.758848c-52.840195-50.968293-124.564834-82.4002-203.809922-82.400199-23.416418 0.001216-46.12251 2.88509-67.935831 8.062925z m0 248.585977V586.100094c21.512891-6.59727 44.249391-10.403107 67.935831-10.403107 72.437397 0 137.052698 33.002164 179.956849 84.695378-32.957161 65.324411-51.632399 139.072991-51.632398 217.244077 0 15.278081 0.800333 30.360337 2.174763 45.290553H255.351098c-83.381762 0-150.969728-67.602561-150.969728-150.969727z m259.094904 150.969727c-1.586069-14.885213-2.446001-29.99666-2.446002-45.290553 0-233.457502 189.25433-422.715481 422.715481-422.715481 47.556541 0 93.225367 7.971702 135.872877 22.464047v294.573476c0 83.367167-67.589181 150.969728-150.969728 150.969728H363.476274v-0.001217zM255.351098 47.302332C138.619307 47.302332 43.99275 141.930105 43.99275 258.66068v513.296588c0 116.730575 94.627773 211.358348 211.359564 211.358348h513.296588c116.730575 0 211.359565-94.627773 211.359565-211.358348V258.66068c0-116.730575-94.62899-211.358348-211.359565-211.358348H255.351098z" p-id="20635" fill="#1296db"></path><path d="M293.09201 334.140071c-20.848785 0-37.740912-16.893342-37.740912-37.742128 0-20.848785 16.893342-37.742128 37.740912-37.742128 20.850002 0 37.743344 16.893342 37.743344 37.742128 0.001216 20.850002-16.893342 37.742128-37.743344 37.742128z m0-135.872877c-54.197598 0-98.130749 43.93315-98.130749 98.130749 0 54.198815 43.93315 98.130749 98.130749 98.130748 54.200031 0 98.131965-43.931934 98.131965-98.130748 0-54.197598-43.931934-98.130749-98.131965-98.130749z" p-id="20636" fill="#1296db"></path></svg>