<?xml version="1.0" standalone="no"?><!DOCTYPE svg PUBLIC "-//W3C//DTD SVG 1.1//EN" "http://www.w3.org/Graphics/SVG/1.1/DTD/svg11.dtd"><svg t="1553480886582" class="icon" style="" viewBox="0 0 1024 1024" version="1.1" xmlns="http://www.w3.org/2000/svg" p-id="18846" xmlns:xlink="http://www.w3.org/1999/xlink" width="200" height="200"><defs><style type="text/css"></style></defs><path d="M511.3 63.2c-247.4 0-448 200.6-448 448s200.6 448 448 448c245.5 0 448-200.6 448-448s-200.6-448-448-448z m0 856.9c-225.9 0-409-183.1-409-409s183.1-409 409-409c224 0 409 183.1 409 409s-183.1 409-409 409z" fill="#f4ea2a" p-id="18847"></path><path d="M511.4 801.4c140.2 0 253.2-113 253.2-253.2H258.2c0 140.2 113 253.2 253.2 253.2z m142.1-381.8c28 0 50.6-22.7 50.6-50.6 0-28-22.7-50.6-50.6-50.6-27.9-0.1-50.6 22.6-50.6 50.6s22.7 50.6 50.6 50.6z m-286.3 0c28 0 50.6-22.7 50.6-50.6 0-28-22.7-50.6-50.6-50.6-28-0.1-50.6 22.6-50.6 50.6s22.7 50.6 50.6 50.6z" fill="#f4ea2a" p-id="18848"></path></svg>