<?xml version="1.0" standalone="no"?><!DOCTYPE svg PUBLIC "-//W3C//DTD SVG 1.1//EN" "http://www.w3.org/Graphics/SVG/1.1/DTD/svg11.dtd"><svg t="1553480912675" class="icon" style="" viewBox="0 0 1024 1024" version="1.1" xmlns="http://www.w3.org/2000/svg" p-id="19776" xmlns:xlink="http://www.w3.org/1999/xlink" width="200" height="200"><defs><style type="text/css"></style></defs><path d="M849.221 542.585c0.991-10.281 1.604-20.608 1.604-31.077 0-10.468-0.613-20.797-1.604-31.077l78.801-62.296c17.07-13.958 21.456-38.009 10.516-57.014l-84.035-147.038c-10.658-18.675-33.483-27.634-55.082-19.335l-92.334 37.538c-16.93-12.167-34.661-22.589-52.912-31.124l-14.006-99.786c-3.301-21.598-22.258-37.868-44.044-37.868H428.007c-22.069 0-40.602 15.893-44.092 38.198l-13.958 99.456c-18.298 8.582-36.029 19.003-52.958 31.124l-92.571-37.679c-19.948-7.734-44.092 0.802-54.751 19.476L85.642 361.074c-10.941 19.146-6.555 43.197 10.799 57.297l78.471 62.059c-0.991 10.233-1.603 20.609-1.603 31.077 0 10.469 0.612 20.843 1.603 31.077L96.017 604.88c-16.93 14.006-21.315 38.01-10.375 56.967l84.083 147.133c10.704 18.627 34.047 27.588 55.033 19.24l92.335-37.538c16.977 12.167 34.707 22.589 52.911 31.077l14.006 99.928c3.443 21.928 21.976 37.821 43.999 37.821H596.08c21.787 0 40.697-16.269 44.14-38.198l13.958-99.504a334.973 334.973 0 0 0 52.912-31.124l92.571 37.726c5.188 2.029 10.611 3.019 16.175 3.019 15.846 0 30.654-8.583 38.669-22.495l83.893-146.944c10.988-18.958 6.744-43.008-10.752-57.485l-78.425-61.918z m-32.066 242.014l-104.644-42.583c-7.829-3.254-16.694-1.98-23.343 3.206-20.656 16.035-42.724 29.002-65.643 38.528-7.687 3.206-13.11 10.281-14.289 18.532l-15.42 110.114-163.214 2.405-15.75-112.519c-1.132-8.252-6.603-15.279-14.289-18.532-22.73-9.432-44.847-22.447-65.643-38.528a23.818 23.818 0 0 0-14.43-4.904c-2.972 0-5.99 0.566-8.866 1.745L210.657 785.59l-84.93-144.02 88.751-70.076c6.509-5.14 9.808-13.345 8.772-21.551-1.698-12.638-2.783-25.419-2.783-38.434 0-13.015 1.086-25.795 2.735-38.339 1.084-8.253-2.217-16.411-8.772-21.552l-87.855-67.104 80.404-146.096 104.549 42.536a23.524 23.524 0 0 0 23.343-3.159c20.701-16.034 42.866-29.05 65.784-38.669 7.687-3.206 13.063-10.233 14.242-18.486l13.109-109.973 165.524-2.404 15.751 112.471c1.132 8.253 6.602 15.279 14.289 18.487 22.824 9.525 44.941 22.494 65.691 38.575 6.696 5.141 15.563 6.366 23.343 3.206l100.965-43.479 84.978 143.926-88.798 70.171c-6.509 5.141-9.856 13.298-8.82 21.504 1.604 12.638 2.783 25.418 2.783 38.434 0 13.015-1.132 25.795-2.783 38.434-1.037 8.205 2.311 16.364 8.82 21.503l87.808 67.012-80.402 146.092zM512.138 333.723c-97.239 0-176.323 79.744-176.323 177.784 0 97.994 79.084 177.785 176.323 177.785s176.275-79.744 176.275-177.785c0-98.04-79.083-177.784-176.275-177.784z m0 308.413c-71.209 0-129.166-58.569-129.166-130.627s57.957-130.627 129.166-130.627 129.118 58.617 129.118 130.627-57.958 130.627-129.118 130.627z" p-id="19777" fill="#1296db"></path></svg>