<?xml version="1.0" standalone="no"?><!DOCTYPE svg PUBLIC "-//W3C//DTD SVG 1.1//EN" "http://www.w3.org/Graphics/SVG/1.1/DTD/svg11.dtd"><svg t="1553510794417" class="icon" style="" viewBox="0 0 1024 1024" version="1.1" xmlns="http://www.w3.org/2000/svg" p-id="7384" xmlns:xlink="http://www.w3.org/1999/xlink" width="200" height="200"><defs><style type="text/css"></style></defs><path d="M45.056 405.504c0 34.816 26.624 61.44 61.44 61.44h131.072v264.192l-98.304 112.64c-22.528 26.624-18.432 63.488 6.144 86.016 26.624 22.528 63.488 18.432 86.016-6.144l67.584-77.824 67.584 77.824c22.528 26.624 61.44 28.672 86.016 6.144 26.624-22.528 28.672-61.44 6.144-86.016l-98.304-112.64V466.944H675.84v264.192l-98.304 112.64c-22.528 26.624-18.432 63.488 6.144 86.016 26.624 22.528 63.488 18.432 86.016-6.144l67.584-77.824 67.584 77.824c22.528 26.624 61.44 28.672 86.016 6.144 26.624-22.528 28.672-61.44 6.144-86.016L798.72 733.184v-266.24h118.784c34.816 0 61.44-26.624 61.44-61.44s-26.624-61.44-61.44-61.44H106.496c-34.816 0-61.44 28.672-61.44 61.44z" fill="#8FD5FF" p-id="7385"></path><path d="M624.64 958.464c-16.384 0-32.768-6.144-47.104-18.432-14.336-12.288-22.528-30.72-24.576-49.152-2.048-18.432 4.096-36.864 16.384-51.2l96.256-110.592V477.184H370.688v251.904l96.256 110.592c12.288 14.336 18.432 32.768 16.384 51.2s-10.24 36.864-24.576 49.152c-30.72 26.624-75.776 22.528-100.352-8.192l-59.392-67.584-59.392 67.584c-26.624 30.72-71.68 32.768-100.352 8.192-14.336-12.288-22.528-30.72-24.576-49.152s4.096-36.864 16.384-51.2l96.256-110.592V477.184H106.496c-38.912 0-71.68-32.768-71.68-71.68s32.768-71.68 71.68-71.68h813.056c38.912 0 71.68 32.768 71.68 71.68s-32.768 71.68-71.68 71.68h-108.544v251.904l96.256 110.592c12.288 14.336 18.432 32.768 16.384 51.2-2.048 18.432-10.24 36.864-24.576 49.152-30.72 26.624-75.776 22.528-100.352-8.192l-61.44-65.536-59.392 67.584c-14.336 16.384-34.816 24.576-53.248 24.576z m112.64-124.928l73.728 86.016c18.432 20.48 51.2 24.576 71.68 6.144 10.24-8.192 16.384-20.48 18.432-34.816 0-14.336-4.096-26.624-12.288-36.864L788.48 737.28V456.704h129.024c28.672 0 51.2-22.528 51.2-51.2s-22.528-51.2-51.2-51.2H106.496c-28.672 0-51.2 22.528-51.2 51.2s22.528 51.2 51.2 51.2h141.312V737.28l-100.352 116.736c-8.192 10.24-14.336 22.528-12.288 36.864 0 14.336 8.192 26.624 18.432 34.816 20.48 18.432 53.248 16.384 71.68-6.144l73.728-86.016 73.728 86.016c18.432 20.48 51.2 24.576 71.68 6.144 10.24-8.192 16.384-20.48 18.432-34.816 0-14.336-4.096-26.624-12.288-36.864L350.208 737.28V456.704h335.872V737.28l-100.352 116.736c-8.192 10.24-14.336 22.528-12.288 36.864 0 14.336 8.192 26.624 18.432 34.816 20.48 18.432 53.248 16.384 71.68-6.144l73.728-86.016z" fill="#0F89DB" p-id="7386"></path><path d="M299.008 176.128m-112.64 0a112.64 112.64 0 1 0 225.28 0 112.64 112.64 0 1 0-225.28 0Z" fill="#0095ED" p-id="7387"></path><path d="M737.28 176.128m-112.64 0a112.64 112.64 0 1 0 225.28 0 112.64 112.64 0 1 0-225.28 0Z" fill="#0095ED" p-id="7388"></path></svg>