<?xml version="1.0" standalone="no"?><!DOCTYPE svg PUBLIC "-//W3C//DTD SVG 1.1//EN" "http://www.w3.org/Graphics/SVG/1.1/DTD/svg11.dtd"><svg t="1553502376296" class="icon" style="" viewBox="0 0 1024 1024" version="1.1" xmlns="http://www.w3.org/2000/svg" p-id="5637" xmlns:xlink="http://www.w3.org/1999/xlink" width="200" height="200"><defs><style type="text/css"></style></defs><path d="M685.2 32H338.9c-43.3 0-78.7 32.3-78.7 71.7v816.5c0 39.5 35.4 71.7 78.7 71.7h346.3c43.3 0 78.7-32.3 78.7-71.8v-816.5c0-39.3-35.4-71.6-78.7-71.6M464.8 89.4h94.4c8.7 0 15.8 6.4 15.8 14.3s-7.1 14.3-15.8 14.3H464.8c-8.7 0-15.8-6.4-15.8-14.3 0.1-7.9 7.2-14.3 15.8-14.3m47.3 873.9c-26.1 0-47.2-19.2-47.2-43s21.1-43 47.2-43 47.2 19.2 47.2 43-21.1 43-47.2 43m220.4-114.7h-440.8v-673.1h440.8v673.1z" p-id="5638" fill="#1296db"></path></svg>