<?xml version="1.0" standalone="no"?><!DOCTYPE svg PUBLIC "-//W3C//DTD SVG 1.1//EN" "http://www.w3.org/Graphics/SVG/1.1/DTD/svg11.dtd"><svg t="1553686980616" class="icon" style="" viewBox="0 0 1024 1024" version="1.1" xmlns="http://www.w3.org/2000/svg" p-id="4213" xmlns:xlink="http://www.w3.org/1999/xlink" width="200" height="200"><defs><style type="text/css"></style></defs><path d="M513 515m-500 0a500 500 0 1 0 1000 0 500 500 0 1 0-1000 0Z" fill="#E8C13A" p-id="4214"></path><path d="M768.24 454.494l-34.402-34.404v-48.644c0-21.716-8.457-42.137-23.816-57.512-15.357-15.341-35.76-23.797-57.477-23.797h-48.66l-34.369-34.354c-15.359-15.375-35.762-23.849-57.514-23.849-21.755 0-42.158 8.475-57.483 23.815l-34.421 34.421h-48.642c-44.813 0-81.293 36.485-81.293 81.316v48.62l-34.404 34.388c-15.358 15.357-23.815 35.779-23.815 57.5 0 21.717 8.474 42.154 23.815 57.496l34.404 34.386v48.678c0 21.721 8.457 42.12 23.798 57.495 15.358 15.359 35.757 23.815 57.496 23.815h48.66l34.369 34.353c15.359 15.376 35.762 23.849 57.517 23.849 21.752 0 42.154-8.473 57.479-23.814l34.404-34.404h48.658c44.813 0 81.295-36.48 81.295-81.311v-48.642l34.402-34.404c15.359-15.358 23.816-35.778 23.816-57.495 0-21.724-8.475-42.142-23.817-57.502M430.398 585.079h-29.997l-26.993-48.749c-7.496-13.498-15.755-29.812-21.937-44.632l-0.561 0.197c0.741 16.681 1.141 34.496 1.141 55.114v38.053h-26.257V458.687h33.392l26.236 46.311c7.5 13.32 15.001 29.059 20.635 43.314h0.562c-1.879-16.678-2.439-33.755-2.439-52.693v-36.932h26.236V585.08l-0.018-0.001m105.329 0h-80.625V458.706h77.985v23.437h-49.31v26.253h46.492v23.256h-46.492v29.992h51.929v23.435h0.021m139.834 0h-30.932l-10.697-54.366c-2.441-12.739-4.502-24.557-6-38.993h-0.379c-2.24 14.256-4.301 26.254-7.299 38.993l-11.996 54.366h-31.316l-29.998-126.373h30.559l9.559 52.129c2.801 14.996 5.438 31.315 7.498 44.054h0.379c2.063-13.695 5.061-28.876 8.258-44.433l10.68-51.749h30.393l10.139 53.248c2.799 14.799 4.875 28.296 6.736 42.375h0.381c1.883-14.057 4.699-28.878 7.318-43.874l10.301-51.749h29.053l-32.637 126.372m0 0z" fill="#FFFFFF" p-id="4215"></path></svg>