<?xml version="1.0" standalone="no"?><!DOCTYPE svg PUBLIC "-//W3C//DTD SVG 1.1//EN" "http://www.w3.org/Graphics/SVG/1.1/DTD/svg11.dtd"><svg t="1553686956648" class="icon" style="" viewBox="0 0 1024 1024" version="1.1" xmlns="http://www.w3.org/2000/svg" p-id="3368" xmlns:xlink="http://www.w3.org/1999/xlink" width="200" height="200"><defs><style type="text/css"></style></defs><path d="M760.832 1022.464h-497.664c-96.256 0-174.592-78.336-174.592-174.592V420.352c0-96.256 78.336-174.592 174.592-174.592h497.664c96.256 0 174.592 78.336 174.592 174.592v427.52c0 96.256-78.336 174.592-174.592 174.592z m-497.664-707.072c-57.856 0-104.96 47.104-104.96 104.96v427.52c0 57.856 47.104 104.96 104.96 104.96h497.664c57.856 0 104.96-47.104 104.96-104.96V420.352c0-57.856-47.104-104.96-104.96-104.96h-497.664z" p-id="3369" fill="#1296db"></path><path d="M710.656 435.712c-19.456 0-34.816-15.872-34.816-34.816v-165.888c0-90.112-73.216-163.84-163.84-163.84s-163.84 73.216-163.84 163.84v165.888c0 19.456-15.872 34.816-34.816 34.816-19.456 0-34.816-15.872-34.816-34.816v-165.888c0-128.512 104.96-233.472 233.472-233.472s233.472 104.96 233.472 233.472v165.888c0 18.944-15.872 34.816-34.816 34.816z" p-id="3370" fill="#1296db"></path></svg>