<?xml version="1.0" standalone="no"?><!DOCTYPE svg PUBLIC "-//W3C//DTD SVG 1.1//EN" "http://www.w3.org/Graphics/SVG/1.1/DTD/svg11.dtd"><svg t="1553502358227" class="icon" style="" viewBox="0 0 1024 1024" version="1.1" xmlns="http://www.w3.org/2000/svg" p-id="4646" xmlns:xlink="http://www.w3.org/1999/xlink" width="200" height="200"><defs><style type="text/css"></style></defs><path d="M238 524H100A100 100 0 0 1 0 424V201a100 100 0 0 1 100-100h138a100 100 0 0 1 100 100v223a100 100 0 0 1-100 100zM100 181a20 20 0 0 0-20 20v223a20 20 0 0 0 20 20h138a20 20 0 0 0 20-20V201a20 20 0 0 0-20-20z" fill="#d4237a" p-id="4647"></path><path d="M236 181H102a40 40 0 0 1-40-40V40a40 40 0 0 1 40-40h134a40 40 0 0 1 40 40v101a40 40 0 0 1-40 40z m-94-80h54V80h-54zM924 873H688a100 100 0 0 1-100-100V441a100 100 0 0 1 100-100h236a100 100 0 0 1 100 100v332a100 100 0 0 1-100 100zM688 421a20 20 0 0 0-20 20v332a20 20 0 0 0 20 20h236a20 20 0 0 0 20-20V441a20 20 0 0 0-20-20z" fill="#d4237a" p-id="4648"></path><path d="M925 1024H687a40 40 0 0 1-40-40V833a40 40 0 0 1 40-40h238a40 40 0 0 1 40 40v151a40 40 0 0 1-40 40z m-198-80h158v-71H727zM877 421H735a40 40 0 0 1-40-40v-89a40 40 0 0 1 40-40h142a40 40 0 0 1 40 40v89a40 40 0 0 1-40 40z m-102-80h62v-9h-62z" fill="#d4237a" p-id="4649"></path><path d="M314 1024c-99 0-180-81-180-180V487a40 40 0 0 1 80 0v357a100 100 0 0 0 200 0V216a216 216 0 0 1 431 0v44a40 40 0 0 1-80 0v-44c0-75-61-135-135-135s-136 60-136 135v628c0 99-81 180-180 180zM807 1001a40 40 0 0 1-40-40v-37a40 40 0 0 1 80 0v37a40 40 0 0 1-40 40zM737 766a40 40 0 0 1-28-68l74-74h-42a40 40 0 0 1-28-68l94-94a40 40 0 0 1 57 57l-26 26h41a40 40 0 0 1 28 68L765 754a40 40 0 0 1-28 12z" fill="#d4237a" p-id="4650"></path></svg>