<?xml version="1.0" standalone="no"?><!DOCTYPE svg PUBLIC "-//W3C//DTD SVG 1.1//EN" "http://www.w3.org/Graphics/SVG/1.1/DTD/svg11.dtd"><svg t="1553755973577" class="icon" style="" viewBox="0 0 1024 1024" version="1.1" xmlns="http://www.w3.org/2000/svg" p-id="1971" xmlns:xlink="http://www.w3.org/1999/xlink" width="200" height="200"><defs><style type="text/css"></style></defs><path d="M515.604 1023.995c-227.023 0-434.972-152.415-495.207-382.095C-51.148 368.843 112.765 88.49 385.79 16.93 518.072-17.72 655.913 1.199 773.915 70.182c118.034 69.014 202.138 179.847 236.801 312.096 6.717 25.634-8.623 51.862-34.257 58.595-25.618 6.686-51.862-8.623-58.595-34.257-28.166-107.458-96.492-197.498-192.39-253.579-95.883-56.048-207.855-71.435-315.345-43.255-221.837 58.142-355.023 285.93-296.88 507.782 58.157 221.805 285.915 355.007 507.735 296.787 156.337-40.929 275.714-170.224 304.16-329.373 4.655-26.119 29.744-43.567 55.674-38.803 26.104 4.655 43.474 29.587 38.803 55.674-34.991 195.873-181.924 354.976-374.314 405.354-43.333 11.356-86.87 16.792-129.703 16.792z" fill="" p-id="1972"></path><path d="M752.546 560.078l-370.222-0.016c-26.51 0-47.988-21.495-47.988-47.988 0-26.51 21.494-47.988 47.988-47.988l370.221 0.015c26.509 0 47.988 21.495 47.988 47.988 0.001 26.51-21.493 47.99-47.987 47.99z" fill="" p-id="1973"></path><path d="M310.607 560.109c-12.278 0-24.556-4.687-33.93-14.059-18.745-18.73-18.745-49.129 0-67.859L496.64 258.23c18.745-18.745 49.112-18.745 67.859 0 18.745 18.73 18.745 49.13 0 67.859L344.536 546.05c-9.373 9.372-21.65 14.059-33.929 14.059z" fill="" p-id="1974"></path><path d="M530.57 779.977c-12.279 0-24.557-4.687-33.93-14.059L276.662 545.971c-18.745-18.73-18.745-49.112 0-67.858 18.715-18.746 49.113-18.746 67.86 0l219.977 219.946c18.745 18.73 18.745 49.113 0 67.86-9.358 9.371-21.652 14.058-33.93 14.058z" fill="" p-id="1975"></path></svg>