<?xml version="1.0" standalone="no"?><!DOCTYPE svg PUBLIC "-//W3C//DTD SVG 1.1//EN" "http://www.w3.org/Graphics/SVG/1.1/DTD/svg11.dtd"><svg t="1553051954406" class="icon" style="" viewBox="0 0 1024 1024" version="1.1" xmlns="http://www.w3.org/2000/svg" p-id="8200" xmlns:xlink="http://www.w3.org/1999/xlink" width="200" height="200"><defs><style type="text/css"></style></defs><path d="M969.386667 962.56c0 22.755556-18.204444 40.96-40.96 40.96H111.502222c-22.755556 0-40.96-18.204444-40.96-40.96 0 0 6.826667-141.084444 118.328889-195.697778 70.542222-34.133333 43.235556-18.204444 129.706667-52.337778 86.471111-34.133333 106.951111-59.164444 106.951111-59.164444l-4.551111-45.511111s-95.573333-27.306667-111.502222-131.982222c-29.582222 6.826667-38.684444-31.857778-40.96-56.888889-2.275556-25.031111-18.204444-102.4 18.204444-95.573334-6.826667-52.337778-13.653333-97.848889-9.102222-122.88 4.551111-40.96-6.826667-47.786667 31.857778-79.644444 9.102222-9.102222-9.102222-47.786667-2.275556-59.164444 11.377778-22.755556 88.746667-13.653333 100.124444-18.204445 31.857778-13.653333 68.266667-22.755556 106.951112-25.031111 163.84 6.826667 227.555556 95.573333 236.657777 182.044444 2.275556 25.031111-2.275556 70.542222-11.377777 122.88 36.408889-6.826667 20.48 70.542222 18.204444 95.573334-2.275556 25.031111-11.377778 65.991111-40.96 56.888889-15.928889 104.675556-93.297778 131.982222-93.297778 131.982222l-4.551111 43.235555s20.48 22.755556 106.951111 59.164445c86.471111 34.133333 59.164444 20.48 129.706667 54.613333 106.951111 52.337778 113.777778 195.697778 113.777778 195.697778z m0 0" fill="#cdcdcd" p-id="8201"></path></svg>