<?xml version="1.0" standalone="no"?><!DOCTYPE svg PUBLIC "-//W3C//DTD SVG 1.1//EN" "http://www.w3.org/Graphics/SVG/1.1/DTD/svg11.dtd"><svg t="1553254157670" class="icon" style="" viewBox="0 0 1024 1024" version="1.1" xmlns="http://www.w3.org/2000/svg" p-id="5054" xmlns:xlink="http://www.w3.org/1999/xlink" width="200" height="200"><defs><style type="text/css"></style></defs><path d="M641.9 444.7h-43.8v-12.2-0.3c-0.3-47.3-38.8-85.6-86.1-85.6s-85.9 38.4-86.1 85.6v12.5h-43.8c-21.1 0-38.3 17.2-38.3 38.2v156.2c0 21.1 17.2 38.2 38.3 38.2h259.8c21.1 0 38.3-17.2 38.3-38.2V483c0-21.1-17.2-38.3-38.3-38.3z m-167.2-11.9c0-20.6 16.7-37.3 37.3-37.3s37.3 16.7 37.3 37.3v12h-74.7v-12z m156.6 195.8H392.7v-135h238.7v135z" p-id="5055" fill="#ffffff"></path><path d="M889.1 506.6h-20.4c-2.9-201.8-167.8-365-370.3-365C294.2 141.6 128 307.8 128 512s166.2 370.4 370.4 370.4c13.5 0 24.4-10.9 24.4-24.4 0-13.5-10.9-24.4-24.4-24.4-177.3 0-321.6-144.3-321.6-321.6s144.3-321.6 321.6-321.6c175.5 0 318.5 141.4 321.4 316.2h-20.2c-5.3 0-8.7 5.8-6 10.4l44.7 77.4c2.7 4.6 9.3 4.6 12 0L895 517c2.7-4.6-0.6-10.4-5.9-10.4z" p-id="5056" fill="#ffffff"></path></svg>